<svg xmlns="http://www.w3.org/2000/svg" width="900" height="273" viewBox="0 0 900 273" role="img" aria-label="contributions"><title>contributions</title><rect x="258.5" y="8.0" width="383.0" height="33.0" rx="7" fill="#161b22"/><text x="271.5" y="35.0" font-family="ui-monospace,SFMono-Regular,'SF Mono',Menlo,Consolas,'DejaVu Sans Mono','Liberation Mono',monospace" font-size="17" xml:space="preserve"><tspan fill="#e6edf3" font-weight="700">inspirevictim@github</tspan><tspan fill="#8b949e" font-weight="700"> ~ </tspan><tspan fill="#3fb950" font-weight="700">$ </tspan><tspan fill="#e6edf3" font-weight="700">./stats.sh</tspan></text><rect x="1.0" y="59.0" width="898.0" height="206.0" rx="12" fill="#0d1117" stroke="#30363d" stroke-width="1"/><text x="85.0" y="129.0" font-family="ui-monospace,SFMono-Regular,'SF Mono',Menlo,Consolas,'DejaVu Sans Mono','Liberation Mono',monospace" font-size="9.5" font-weight="400" fill="#8b949e" text-anchor="end" xml:space="preserve">Mon</text><text x="85.0" y="157.0" font-family="ui-monospace,SFMono-Regular,'SF Mono',Menlo,Consolas,'DejaVu Sans Mono','Liberation Mono',monospace" font-size="9.5" font-weight="400" fill="#8b949e" text-anchor="end" xml:space="preserve">Wed</text><text x="85.0" y="185.0" font-family="ui-monospace,SFMono-Regular,'SF Mono',Menlo,Consolas,'DejaVu Sans Mono','Liberation Mono',monospace" font-size="9.5" font-weight="400" fill="#8b949e" text-anchor="end" xml:space="preserve">Fri</text><rect x="93.0" y="105.0" width="11.0" height="11.0" rx="2" fill="#161b22"/><text x="93.0" y="97.0" font-family="ui-monospace,SFMono-Regular,'SF Mono',Menlo,Consolas,'DejaVu Sans Mono','Liberation Mono',monospace" font-size="9.5" font-weight="400" fill="#8b949e" text-anchor="start" xml:space="preserve">Aug</text><rect x="93.0" y="119.0" width="11.0" height="11.0" rx="2" fill="#161b22"/><rect x="93.0" y="133.0" width="11.0" height="11.0" rx="2" fill="#161b22"/><rect x="93.0" y="147.0" width="11.0" height="11.0" rx="2" fill="#161b22"/><rect x="93.0" y="161.0" width="11.0" height="11.0" rx="2" fill="#161b22"/><rect x="93.0" y="175.0" width="11.0" height="11.0" rx="2" fill="#161b22"/><rect x="93.0" y="189.0" width="11.0" height="11.0" rx="2" fill="#161b22"/><rect x="107.0" y="105.0" width="11.0" height="11.0" rx="2" fill="#161b22"/><rect x="107.0" y="119.0" width="11.0" height="11.0" rx="2" fill="#161b22"/><rect x="107.0" y="133.0" width="11.0" height="11.0" rx="2" fill="#161b22"/><rect x="107.0" y="147.0" width="11.0" height="11.0" rx="2" fill="#161b22"/><rect x="107.0" y="161.0" width="11.0" height="11.0" rx="2" fill="#161b22"/><rect x="107.0" y="175.0" width="11.0" height="11.0" rx="2" fill="#161b22"/><rect x="107.0" y="189.0" width="11.0" height="11.0" rx="2" fill="#161b22"/><rect x="121.0" y="105.0" width="11.0" height="11.0" rx="2" fill="#161b22"/><rect x="121.0" y="119.0" width="11.0" height="11.0" rx="2" fill="#161b22"/><rect x="121.0" y="133.0" width="11.0" height="11.0" rx="2" fill="#161b22"/><rect x="121.0" y="147.0" width="11.0" height="11.0" rx="2" fill="#161b22"/><rect x="121.0" y="161.0" width="11.0" height="11.0" rx="2" fill="#161b22"/><rect x="121.0" y="175.0" width="11.0" height="11.0" rx="2" fill="#161b22"/><rect x="121.0" y="189.0" width="11.0" height="11.0" rx="2" fill="#161b22"/><rect x="135.0" y="105.0" width="11.0" height="11.0" rx="2" fill="#161b22"/><rect x="135.0" y="119.0" width="11.0" height="11.0" rx="2" fill="#161b22"/><rect x="135.0" y="133.0" width="11.0" height="11.0" rx="2" fill="#161b22"/><rect x="135.0" y="147.0" width="11.0" height="11.0" rx="2" fill="#161b22"/><rect x="135.0" y="161.0" width="11.0" height="11.0" rx="2" fill="#161b22"/><rect x="135.0" y="175.0" width="11.0" height="11.0" rx="2" fill="#161b22"/><rect x="135.0" y="189.0" width="11.0" height="11.0" rx="2" fill="#161b22"/><rect x="149.0" y="105.0" width="11.0" height="11.0" rx="2" fill="#161b22"/><text x="149.0" y="97.0" font-family="ui-monospace,SFMono-Regular,'SF Mono',Menlo,Consolas,'DejaVu Sans Mono','Liberation Mono',monospace" font-size="9.5" font-weight="400" fill="#8b949e" text-anchor="start" xml:space="preserve">Sep</text><rect x="149.0" y="119.0" width="11.0" height="11.0" rx="2" fill="#161b22"/><rect x="149.0" y="133.0" width="11.0" height="11.0" rx="2" fill="#161b22"/><rect x="149.0" y="147.0" width="11.0" height="11.0" rx="2" fill="#161b22"/><rect x="149.0" y="161.0" width="11.0" height="11.0" rx="2" fill="#161b22"/><rect x="149.0" y="175.0" width="11.0" height="11.0" rx="2" fill="#161b22"/><rect x="149.0" y="189.0" width="11.0" height="11.0" rx="2" fill="#161b22"/><rect x="163.0" y="105.0" width="11.0" height="11.0" rx="2" fill="#161b22"/><rect x="163.0" y="119.0" width="11.0" height="11.0" rx="2" fill="#161b22"/><rect x="163.0" y="133.0" width="11.0" height="11.0" rx="2" fill="#161b22"/><rect x="163.0" y="147.0" width="11.0" height="11.0" rx="2" fill="#161b22"/><rect x="163.0" y="161.0" width="11.0" height="11.0" rx="2" fill="#161b22"/><rect x="163.0" y="175.0" width="11.0" height="11.0" rx="2" fill="#161b22"/><rect x="163.0" y="189.0" width="11.0" height="11.0" rx="2" fill="#161b22"/><rect x="177.0" y="105.0" width="11.0" height="11.0" rx="2" fill="#161b22"/><rect x="177.0" y="119.0" width="11.0" height="11.0" rx="2" fill="#0e4429"/><rect x="177.0" y="133.0" width="11.0" height="11.0" rx="2" fill="#0e4429"/><rect x="177.0" y="147.0" width="11.0" height="11.0" rx="2" fill="#161b22"/><rect x="177.0" y="161.0" width="11.0" height="11.0" rx="2" fill="#161b22"/><rect x="177.0" y="175.0" width="11.0" height="11.0" rx="2" fill="#161b22"/><rect x="177.0" y="189.0" width="11.0" height="11.0" rx="2" fill="#161b22"/><rect x="191.0" y="105.0" width="11.0" height="11.0" rx="2" fill="#161b22"/><rect x="191.0" y="119.0" width="11.0" height="11.0" rx="2" fill="#0e4429"/><rect x="191.0" y="133.0" width="11.0" height="11.0" rx="2" fill="#161b22"/><rect x="191.0" y="147.0" width="11.0" height="11.0" rx="2" fill="#161b22"/><rect x="191.0" y="161.0" width="11.0" height="11.0" rx="2" fill="#161b22"/><rect x="191.0" y="175.0" width="11.0" height="11.0" rx="2" fill="#0e4429"/><rect x="191.0" y="189.0" width="11.0" height="11.0" rx="2" fill="#161b22"/><rect x="205.0" y="105.0" width="11.0" height="11.0" rx="2" fill="#161b22"/><text x="205.0" y="97.0" font-family="ui-monospace,SFMono-Regular,'SF Mono',Menlo,Consolas,'DejaVu Sans Mono','Liberation Mono',monospace" font-size="9.5" font-weight="400" fill="#8b949e" text-anchor="start" xml:space="preserve">Oct</text><rect x="205.0" y="119.0" width="11.0" height="11.0" rx="2" fill="#161b22"/><rect x="205.0" y="133.0" width="11.0" height="11.0" rx="2" fill="#161b22"/><rect x="205.0" y="147.0" width="11.0" height="11.0" rx="2" fill="#161b22"/><rect x="205.0" y="161.0" width="11.0" height="11.0" rx="2" fill="#161b22"/><rect x="205.0" y="175.0" width="11.0" height="11.0" rx="2" fill="#161b22"/><rect x="205.0" y="189.0" width="11.0" height="11.0" rx="2" fill="#161b22"/><rect x="219.0" y="105.0" width="11.0" height="11.0" rx="2" fill="#0e4429"/><rect x="219.0" y="119.0" width="11.0" height="11.0" rx="2" fill="#0e4429"/><rect x="219.0" y="133.0" width="11.0" height="11.0" rx="2" fill="#0e4429"/><rect x="219.0" y="147.0" width="11.0" height="11.0" rx="2" fill="#161b22"/><rect x="219.0" y="161.0" width="11.0" height="11.0" rx="2" fill="#161b22"/><rect x="219.0" y="175.0" width="11.0" height="11.0" rx="2" fill="#161b22"/><rect x="219.0" y="189.0" width="11.0" height="11.0" rx="2" fill="#161b22"/><rect x="233.0" y="105.0" width="11.0" height="11.0" rx="2" fill="#161b22"/><rect x="233.0" y="119.0" width="11.0" height="11.0" rx="2" fill="#161b22"/><rect x="233.0" y="133.0" width="11.0" height="11.0" rx="2" fill="#0e4429"/><rect x="233.0" y="147.0" width="11.0" height="11.0" rx="2" fill="#161b22"/><rect x="233.0" y="161.0" width="11.0" height="11.0" rx="2" fill="#161b22"/><rect x="233.0" y="175.0" width="11.0" height="11.0" rx="2" fill="#161b22"/><rect x="233.0" y="189.0" width="11.0" height="11.0" rx="2" fill="#161b22"/><rect x="247.0" y="105.0" width="11.0" height="11.0" rx="2" fill="#0e4429"/><rect x="247.0" y="119.0" width="11.0" height="11.0" rx="2" fill="#161b22"/><rect x="247.0" y="133.0" width="11.0" height="11.0" rx="2" fill="#161b22"/><rect x="247.0" y="147.0" width="11.0" height="11.0" rx="2" fill="#161b22"/><rect x="247.0" y="161.0" width="11.0" height="11.0" rx="2" fill="#161b22"/><rect x="247.0" y="175.0" width="11.0" height="11.0" rx="2" fill="#0e4429"/><rect x="247.0" y="189.0" width="11.0" height="11.0" rx="2" fill="#161b22"/><rect x="261.0" y="105.0" width="11.0" height="11.0" rx="2" fill="#161b22"/><text x="261.0" y="97.0" font-family="ui-monospace,SFMono-Regular,'SF Mono',Menlo,Consolas,'DejaVu Sans Mono','Liberation Mono',monospace" font-size="9.5" font-weight="400" fill="#8b949e" text-anchor="start" xml:space="preserve">Nov</text><rect x="261.0" y="119.0" width="11.0" height="11.0" rx="2" fill="#161b22"/><rect x="261.0" y="133.0" width="11.0" height="11.0" rx="2" fill="#161b22"/><rect x="261.0" y="147.0" width="11.0" height="11.0" rx="2" fill="#161b22"/><rect x="261.0" y="161.0" width="11.0" height="11.0" rx="2" fill="#161b22"/><rect x="261.0" y="175.0" width="11.0" height="11.0" rx="2" fill="#161b22"/><rect x="261.0" y="189.0" width="11.0" height="11.0" rx="2" fill="#161b22"/><rect x="275.0" y="105.0" width="11.0" height="11.0" rx="2" fill="#161b22"/><rect x="275.0" y="119.0" width="11.0" height="11.0" rx="2" fill="#161b22"/><rect x="275.0" y="133.0" width="11.0" height="11.0" rx="2" fill="#161b22"/><rect x="275.0" y="147.0" width="11.0" height="11.0" rx="2" fill="#161b22"/><rect x="275.0" y="161.0" width="11.0" height="11.0" rx="2" fill="#161b22"/><rect x="275.0" y="175.0" width="11.0" height="11.0" rx="2" fill="#161b22"/><rect x="275.0" y="189.0" width="11.0" height="11.0" rx="2" fill="#0e4429"/><rect x="289.0" y="105.0" width="11.0" height="11.0" rx="2" fill="#161b22"/><rect x="289.0" y="119.0" width="11.0" height="11.0" rx="2" fill="#161b22"/><rect x="289.0" y="133.0" width="11.0" height="11.0" rx="2" fill="#161b22"/><rect x="289.0" y="147.0" width="11.0" height="11.0" rx="2" fill="#0e4429"/><rect x="289.0" y="161.0" width="11.0" height="11.0" rx="2" fill="#161b22"/><rect x="289.0" y="175.0" width="11.0" height="11.0" rx="2" fill="#0e4429"/><rect x="289.0" y="189.0" width="11.0" height="11.0" rx="2" fill="#161b22"/><rect x="303.0" y="105.0" width="11.0" height="11.0" rx="2" fill="#161b22"/><rect x="303.0" y="119.0" width="11.0" height="11.0" rx="2" fill="#161b22"/><rect x="303.0" y="133.0" width="11.0" height="11.0" rx="2" fill="#161b22"/><rect x="303.0" y="147.0" width="11.0" height="11.0" rx="2" fill="#161b22"/><rect x="303.0" y="161.0" width="11.0" height="11.0" rx="2" fill="#161b22"/><rect x="303.0" y="175.0" width="11.0" height="11.0" rx="2" fill="#161b22"/><rect x="303.0" y="189.0" width="11.0" height="11.0" rx="2" fill="#161b22"/><rect x="317.0" y="105.0" width="11.0" height="11.0" rx="2" fill="#161b22"/><rect x="317.0" y="119.0" width="11.0" height="11.0" rx="2" fill="#0e4429"/><rect x="317.0" y="133.0" width="11.0" height="11.0" rx="2" fill="#161b22"/><rect x="317.0" y="147.0" width="11.0" height="11.0" rx="2" fill="#161b22"/><rect x="317.0" y="161.0" width="11.0" height="11.0" rx="2" fill="#0e4429"/><rect x="317.0" y="175.0" width="11.0" height="11.0" rx="2" fill="#0e4429"/><rect x="317.0" y="189.0" width="11.0" height="11.0" rx="2" fill="#0e4429"/><rect x="331.0" y="105.0" width="11.0" height="11.0" rx="2" fill="#161b22"/><text x="331.0" y="97.0" font-family="ui-monospace,SFMono-Regular,'SF Mono',Menlo,Consolas,'DejaVu Sans Mono','Liberation Mono',monospace" font-size="9.5" font-weight="400" fill="#8b949e" text-anchor="start" xml:space="preserve">Dec</text><rect x="331.0" y="119.0" width="11.0" height="11.0" rx="2" fill="#161b22"/><rect x="331.0" y="133.0" width="11.0" height="11.0" rx="2" fill="#0e4429"/><rect x="331.0" y="147.0" width="11.0" height="11.0" rx="2" fill="#161b22"/><rect x="331.0" y="161.0" width="11.0" height="11.0" rx="2" fill="#0e4429"/><rect x="331.0" y="175.0" width="11.0" height="11.0" rx="2" fill="#161b22"/><rect x="331.0" y="189.0" width="11.0" height="11.0" rx="2" fill="#161b22"/><rect x="345.0" y="105.0" width="11.0" height="11.0" rx="2" fill="#161b22"/><rect x="345.0" y="119.0" width="11.0" height="11.0" rx="2" fill="#0e4429"/><rect x="345.0" y="133.0" width="11.0" height="11.0" rx="2" fill="#161b22"/><rect x="345.0" y="147.0" width="11.0" height="11.0" rx="2" fill="#006d32"/><rect x="345.0" y="161.0" width="11.0" height="11.0" rx="2" fill="#0e4429"/><rect x="345.0" y="175.0" width="11.0" height="11.0" rx="2" fill="#26a641"/><rect x="345.0" y="189.0" width="11.0" height="11.0" rx="2" fill="#0e4429"/><rect x="359.0" y="105.0" width="11.0" height="11.0" rx="2" fill="#0e4429"/><rect x="359.0" y="119.0" width="11.0" height="11.0" rx="2" fill="#161b22"/><rect x="359.0" y="133.0" width="11.0" height="11.0" rx="2" fill="#0e4429"/><rect x="359.0" y="147.0" width="11.0" height="11.0" rx="2" fill="#0e4429"/><rect x="359.0" y="161.0" width="11.0" height="11.0" rx="2" fill="#161b22"/><rect x="359.0" y="175.0" width="11.0" height="11.0" rx="2" fill="#0e4429"/><rect x="359.0" y="189.0" width="11.0" height="11.0" rx="2" fill="#161b22"/><rect x="373.0" y="105.0" width="11.0" height="11.0" rx="2" fill="#161b22"/><rect x="373.0" y="119.0" width="11.0" height="11.0" rx="2" fill="#161b22"/><rect x="373.0" y="133.0" width="11.0" height="11.0" rx="2" fill="#161b22"/><rect x="373.0" y="147.0" width="11.0" height="11.0" rx="2" fill="#161b22"/><rect x="373.0" y="161.0" width="11.0" height="11.0" rx="2" fill="#161b22"/><rect x="373.0" y="175.0" width="11.0" height="11.0" rx="2" fill="#161b22"/><rect x="373.0" y="189.0" width="11.0" height="11.0" rx="2" fill="#0e4429"/><rect x="387.0" y="105.0" width="11.0" height="11.0" rx="2" fill="#161b22"/><text x="387.0" y="97.0" font-family="ui-monospace,SFMono-Regular,'SF Mono',Menlo,Consolas,'DejaVu Sans Mono','Liberation Mono',monospace" font-size="9.5" font-weight="400" fill="#8b949e" text-anchor="start" xml:space="preserve">Jan</text><rect x="387.0" y="119.0" width="11.0" height="11.0" rx="2" fill="#161b22"/><rect x="387.0" y="133.0" width="11.0" height="11.0" rx="2" fill="#161b22"/><rect x="387.0" y="147.0" width="11.0" height="11.0" rx="2" fill="#161b22"/><rect x="387.0" y="161.0" width="11.0" height="11.0" rx="2" fill="#0e4429"/><rect x="387.0" y="175.0" width="11.0" height="11.0" rx="2" fill="#161b22"/><rect x="387.0" y="189.0" width="11.0" height="11.0" rx="2" fill="#161b22"/><rect x="401.0" y="105.0" width="11.0" height="11.0" rx="2" fill="#161b22"/><rect x="401.0" y="119.0" width="11.0" height="11.0" rx="2" fill="#0e4429"/><rect x="401.0" y="133.0" width="11.0" height="11.0" rx="2" fill="#0e4429"/><rect x="401.0" y="147.0" width="11.0" height="11.0" rx="2" fill="#161b22"/><rect x="401.0" y="161.0" width="11.0" height="11.0" rx="2" fill="#161b22"/><rect x="401.0" y="175.0" width="11.0" height="11.0" rx="2" fill="#161b22"/><rect x="401.0" y="189.0" width="11.0" height="11.0" rx="2" fill="#161b22"/><rect x="415.0" y="105.0" width="11.0" height="11.0" rx="2" fill="#161b22"/><rect x="415.0" y="119.0" width="11.0" height="11.0" rx="2" fill="#161b22"/><rect x="415.0" y="133.0" width="11.0" height="11.0" rx="2" fill="#161b22"/><rect x="415.0" y="147.0" width="11.0" height="11.0" rx="2" fill="#161b22"/><rect x="415.0" y="161.0" width="11.0" height="11.0" rx="2" fill="#0e4429"/><rect x="415.0" y="175.0" width="11.0" height="11.0" rx="2" fill="#0e4429"/><rect x="415.0" y="189.0" width="11.0" height="11.0" rx="2" fill="#161b22"/><rect x="429.0" y="105.0" width="11.0" height="11.0" rx="2" fill="#161b22"/><rect x="429.0" y="119.0" width="11.0" height="11.0" rx="2" fill="#161b22"/><rect x="429.0" y="133.0" width="11.0" height="11.0" rx="2" fill="#161b22"/><rect x="429.0" y="147.0" width="11.0" height="11.0" rx="2" fill="#0e4429"/><rect x="429.0" y="161.0" width="11.0" height="11.0" rx="2" fill="#161b22"/><rect x="429.0" y="175.0" width="11.0" height="11.0" rx="2" fill="#161b22"/><rect x="429.0" y="189.0" width="11.0" height="11.0" rx="2" fill="#161b22"/><rect x="443.0" y="105.0" width="11.0" height="11.0" rx="2" fill="#161b22"/><text x="443.0" y="97.0" font-family="ui-monospace,SFMono-Regular,'SF Mono',Menlo,Consolas,'DejaVu Sans Mono','Liberation Mono',monospace" font-size="9.5" font-weight="400" fill="#8b949e" text-anchor="start" xml:space="preserve">Feb</text><rect x="443.0" y="119.0" width="11.0" height="11.0" rx="2" fill="#161b22"/><rect x="443.0" y="133.0" width="11.0" height="11.0" rx="2" fill="#161b22"/><rect x="443.0" y="147.0" width="11.0" height="11.0" rx="2" fill="#161b22"/><rect x="443.0" y="161.0" width="11.0" height="11.0" rx="2" fill="#161b22"/><rect x="443.0" y="175.0" width="11.0" height="11.0" rx="2" fill="#161b22"/><rect x="443.0" y="189.0" width="11.0" height="11.0" rx="2" fill="#0e4429"/><rect x="457.0" y="105.0" width="11.0" height="11.0" rx="2" fill="#161b22"/><rect x="457.0" y="119.0" width="11.0" height="11.0" rx="2" fill="#0e4429"/><rect x="457.0" y="133.0" width="11.0" height="11.0" rx="2" fill="#006d32"/><rect x="457.0" y="147.0" width="11.0" height="11.0" rx="2" fill="#161b22"/><rect x="457.0" y="161.0" width="11.0" height="11.0" rx="2" fill="#161b22"/><rect x="457.0" y="175.0" width="11.0" height="11.0" rx="2" fill="#161b22"/><rect x="457.0" y="189.0" width="11.0" height="11.0" rx="2" fill="#161b22"/><rect x="471.0" y="105.0" width="11.0" height="11.0" rx="2" fill="#161b22"/><rect x="471.0" y="119.0" width="11.0" height="11.0" rx="2" fill="#0e4429"/><rect x="471.0" y="133.0" width="11.0" height="11.0" rx="2" fill="#0e4429"/><rect x="471.0" y="147.0" width="11.0" height="11.0" rx="2" fill="#161b22"/><rect x="471.0" y="161.0" width="11.0" height="11.0" rx="2" fill="#161b22"/><rect x="471.0" y="175.0" width="11.0" height="11.0" rx="2" fill="#161b22"/><rect x="471.0" y="189.0" width="11.0" height="11.0" rx="2" fill="#0e4429"/><rect x="485.0" y="105.0" width="11.0" height="11.0" rx="2" fill="#0e4429"/><rect x="485.0" y="119.0" width="11.0" height="11.0" rx="2" fill="#161b22"/><rect x="485.0" y="133.0" width="11.0" height="11.0" rx="2" fill="#161b22"/><rect x="485.0" y="147.0" width="11.0" height="11.0" rx="2" fill="#0e4429"/><rect x="485.0" y="161.0" width="11.0" height="11.0" rx="2" fill="#161b22"/><rect x="485.0" y="175.0" width="11.0" height="11.0" rx="2" fill="#161b22"/><rect x="485.0" y="189.0" width="11.0" height="11.0" rx="2" fill="#161b22"/><rect x="499.0" y="105.0" width="11.0" height="11.0" rx="2" fill="#0e4429"/><text x="499.0" y="97.0" font-family="ui-monospace,SFMono-Regular,'SF Mono',Menlo,Consolas,'DejaVu Sans Mono','Liberation Mono',monospace" font-size="9.5" font-weight="400" fill="#8b949e" text-anchor="start" xml:space="preserve">Mar</text><rect x="499.0" y="119.0" width="11.0" height="11.0" rx="2" fill="#161b22"/><rect x="499.0" y="133.0" width="11.0" height="11.0" rx="2" fill="#161b22"/><rect x="499.0" y="147.0" width="11.0" height="11.0" rx="2" fill="#161b22"/><rect x="499.0" y="161.0" width="11.0" height="11.0" rx="2" fill="#161b22"/><rect x="499.0" y="175.0" width="11.0" height="11.0" rx="2" fill="#161b22"/><rect x="499.0" y="189.0" width="11.0" height="11.0" rx="2" fill="#161b22"/><rect x="513.0" y="105.0" width="11.0" height="11.0" rx="2" fill="#161b22"/><rect x="513.0" y="119.0" width="11.0" height="11.0" rx="2" fill="#161b22"/><rect x="513.0" y="133.0" width="11.0" height="11.0" rx="2" fill="#161b22"/><rect x="513.0" y="147.0" width="11.0" height="11.0" rx="2" fill="#161b22"/><rect x="513.0" y="161.0" width="11.0" height="11.0" rx="2" fill="#161b22"/><rect x="513.0" y="175.0" width="11.0" height="11.0" rx="2" fill="#161b22"/><rect x="513.0" y="189.0" width="11.0" height="11.0" rx="2" fill="#161b22"/><rect x="527.0" y="105.0" width="11.0" height="11.0" rx="2" fill="#161b22"/><rect x="527.0" y="119.0" width="11.0" height="11.0" rx="2" fill="#161b22"/><rect x="527.0" y="133.0" width="11.0" height="11.0" rx="2" fill="#161b22"/><rect x="527.0" y="147.0" width="11.0" height="11.0" rx="2" fill="#161b22"/><rect x="527.0" y="161.0" width="11.0" height="11.0" rx="2" fill="#161b22"/><rect x="527.0" y="175.0" width="11.0" height="11.0" rx="2" fill="#161b22"/><rect x="527.0" y="189.0" width="11.0" height="11.0" rx="2" fill="#161b22"/><rect x="541.0" y="105.0" width="11.0" height="11.0" rx="2" fill="#161b22"/><rect x="541.0" y="119.0" width="11.0" height="11.0" rx="2" fill="#161b22"/><rect x="541.0" y="133.0" width="11.0" height="11.0" rx="2" fill="#161b22"/><rect x="541.0" y="147.0" width="11.0" height="11.0" rx="2" fill="#161b22"/><rect x="541.0" y="161.0" width="11.0" height="11.0" rx="2" fill="#161b22"/><rect x="541.0" y="175.0" width="11.0" height="11.0" rx="2" fill="#161b22"/><rect x="541.0" y="189.0" width="11.0" height="11.0" rx="2" fill="#161b22"/><rect x="555.0" y="105.0" width="11.0" height="11.0" rx="2" fill="#161b22"/><rect x="555.0" y="119.0" width="11.0" height="11.0" rx="2" fill="#161b22"/><rect x="555.0" y="133.0" width="11.0" height="11.0" rx="2" fill="#161b22"/><rect x="555.0" y="147.0" width="11.0" height="11.0" rx="2" fill="#161b22"/><rect x="555.0" y="161.0" width="11.0" height="11.0" rx="2" fill="#0e4429"/><rect x="555.0" y="175.0" width="11.0" height="11.0" rx="2" fill="#161b22"/><rect x="555.0" y="189.0" width="11.0" height="11.0" rx="2" fill="#161b22"/><rect x="569.0" y="105.0" width="11.0" height="11.0" rx="2" fill="#161b22"/><text x="569.0" y="97.0" font-family="ui-monospace,SFMono-Regular,'SF Mono',Menlo,Consolas,'DejaVu Sans Mono','Liberation Mono',monospace" font-size="9.5" font-weight="400" fill="#8b949e" text-anchor="start" xml:space="preserve">Apr</text><rect x="569.0" y="119.0" width="11.0" height="11.0" rx="2" fill="#161b22"/><rect x="569.0" y="133.0" width="11.0" height="11.0" rx="2" fill="#161b22"/><rect x="569.0" y="147.0" width="11.0" height="11.0" rx="2" fill="#161b22"/><rect x="569.0" y="161.0" width="11.0" height="11.0" rx="2" fill="#161b22"/><rect x="569.0" y="175.0" width="11.0" height="11.0" rx="2" fill="#0e4429"/><rect x="569.0" y="189.0" width="11.0" height="11.0" rx="2" fill="#161b22"/><rect x="583.0" y="105.0" width="11.0" height="11.0" rx="2" fill="#161b22"/><rect x="583.0" y="119.0" width="11.0" height="11.0" rx="2" fill="#161b22"/><rect x="583.0" y="133.0" width="11.0" height="11.0" rx="2" fill="#161b22"/><rect x="583.0" y="147.0" width="11.0" height="11.0" rx="2" fill="#161b22"/><rect x="583.0" y="161.0" width="11.0" height="11.0" rx="2" fill="#0e4429"/><rect x="583.0" y="175.0" width="11.0" height="11.0" rx="2" fill="#161b22"/><rect x="583.0" y="189.0" width="11.0" height="11.0" rx="2" fill="#006d32"/><rect x="597.0" y="105.0" width="11.0" height="11.0" rx="2" fill="#161b22"/><rect x="597.0" y="119.0" width="11.0" height="11.0" rx="2" fill="#161b22"/><rect x="597.0" y="133.0" width="11.0" height="11.0" rx="2" fill="#161b22"/><rect x="597.0" y="147.0" width="11.0" height="11.0" rx="2" fill="#161b22"/><rect x="597.0" y="161.0" width="11.0" height="11.0" rx="2" fill="#161b22"/><rect x="597.0" y="175.0" width="11.0" height="11.0" rx="2" fill="#161b22"/><rect x="597.0" y="189.0" width="11.0" height="11.0" rx="2" fill="#161b22"/><rect x="611.0" y="105.0" width="11.0" height="11.0" rx="2" fill="#161b22"/><rect x="611.0" y="119.0" width="11.0" height="11.0" rx="2" fill="#161b22"/><rect x="611.0" y="133.0" width="11.0" height="11.0" rx="2" fill="#161b22"/><rect x="611.0" y="147.0" width="11.0" height="11.0" rx="2" fill="#161b22"/><rect x="611.0" y="161.0" width="11.0" height="11.0" rx="2" fill="#161b22"/><rect x="611.0" y="175.0" width="11.0" height="11.0" rx="2" fill="#161b22"/><rect x="611.0" y="189.0" width="11.0" height="11.0" rx="2" fill="#161b22"/><rect x="625.0" y="105.0" width="11.0" height="11.0" rx="2" fill="#161b22"/><text x="625.0" y="97.0" font-family="ui-monospace,SFMono-Regular,'SF Mono',Menlo,Consolas,'DejaVu Sans Mono','Liberation Mono',monospace" font-size="9.5" font-weight="400" fill="#8b949e" text-anchor="start" xml:space="preserve">May</text><rect x="625.0" y="119.0" width="11.0" height="11.0" rx="2" fill="#161b22"/><rect x="625.0" y="133.0" width="11.0" height="11.0" rx="2" fill="#161b22"/><rect x="625.0" y="147.0" width="11.0" height="11.0" rx="2" fill="#161b22"/><rect x="625.0" y="161.0" width="11.0" height="11.0" rx="2" fill="#161b22"/><rect x="625.0" y="175.0" width="11.0" height="11.0" rx="2" fill="#161b22"/><rect x="625.0" y="189.0" width="11.0" height="11.0" rx="2" fill="#161b22"/><rect x="639.0" y="105.0" width="11.0" height="11.0" rx="2" fill="#161b22"/><rect x="639.0" y="119.0" width="11.0" height="11.0" rx="2" fill="#161b22"/><rect x="639.0" y="133.0" width="11.0" height="11.0" rx="2" fill="#161b22"/><rect x="639.0" y="147.0" width="11.0" height="11.0" rx="2" fill="#161b22"/><rect x="639.0" y="161.0" width="11.0" height="11.0" rx="2" fill="#0e4429"/><rect x="639.0" y="175.0" width="11.0" height="11.0" rx="2" fill="#161b22"/><rect x="639.0" y="189.0" width="11.0" height="11.0" rx="2" fill="#161b22"/><rect x="653.0" y="105.0" width="11.0" height="11.0" rx="2" fill="#161b22"/><rect x="653.0" y="119.0" width="11.0" height="11.0" rx="2" fill="#0e4429"/><rect x="653.0" y="133.0" width="11.0" height="11.0" rx="2" fill="#161b22"/><rect x="653.0" y="147.0" width="11.0" height="11.0" rx="2" fill="#161b22"/><rect x="653.0" y="161.0" width="11.0" height="11.0" rx="2" fill="#0e4429"/><rect x="653.0" y="175.0" width="11.0" height="11.0" rx="2" fill="#0e4429"/><rect x="653.0" y="189.0" width="11.0" height="11.0" rx="2" fill="#006d32"/><rect x="667.0" y="105.0" width="11.0" height="11.0" rx="2" fill="#161b22"/><rect x="667.0" y="119.0" width="11.0" height="11.0" rx="2" fill="#161b22"/><rect x="667.0" y="133.0" width="11.0" height="11.0" rx="2" fill="#0e4429"/><rect x="667.0" y="147.0" width="11.0" height="11.0" rx="2" fill="#0e4429"/><rect x="667.0" y="161.0" width="11.0" height="11.0" rx="2" fill="#0e4429"/><rect x="667.0" y="175.0" width="11.0" height="11.0" rx="2" fill="#161b22"/><rect x="667.0" y="189.0" width="11.0" height="11.0" rx="2" fill="#161b22"/><rect x="681.0" y="105.0" width="11.0" height="11.0" rx="2" fill="#161b22"/><rect x="681.0" y="119.0" width="11.0" height="11.0" rx="2" fill="#0e4429"/><rect x="681.0" y="133.0" width="11.0" height="11.0" rx="2" fill="#161b22"/><rect x="681.0" y="147.0" width="11.0" height="11.0" rx="2" fill="#26a641"/><rect x="681.0" y="161.0" width="11.0" height="11.0" rx="2" fill="#39d353"/><rect x="681.0" y="175.0" width="11.0" height="11.0" rx="2" fill="#0e4429"/><rect x="681.0" y="189.0" width="11.0" height="11.0" rx="2" fill="#161b22"/><rect x="695.0" y="105.0" width="11.0" height="11.0" rx="2" fill="#161b22"/><text x="695.0" y="97.0" font-family="ui-monospace,SFMono-Regular,'SF Mono',Menlo,Consolas,'DejaVu Sans Mono','Liberation Mono',monospace" font-size="9.5" font-weight="400" fill="#8b949e" text-anchor="start" xml:space="preserve">Jun</text><rect x="695.0" y="119.0" width="11.0" height="11.0" rx="2" fill="#161b22"/><rect x="695.0" y="133.0" width="11.0" height="11.0" rx="2" fill="#161b22"/><rect x="695.0" y="147.0" width="11.0" height="11.0" rx="2" fill="#161b22"/><rect x="695.0" y="161.0" width="11.0" height="11.0" rx="2" fill="#161b22"/><rect x="695.0" y="175.0" width="11.0" height="11.0" rx="2" fill="#161b22"/><rect x="695.0" y="189.0" width="11.0" height="11.0" rx="2" fill="#161b22"/><rect x="709.0" y="105.0" width="11.0" height="11.0" rx="2" fill="#161b22"/><rect x="709.0" y="119.0" width="11.0" height="11.0" rx="2" fill="#161b22"/><rect x="709.0" y="133.0" width="11.0" height="11.0" rx="2" fill="#161b22"/><rect x="709.0" y="147.0" width="11.0" height="11.0" rx="2" fill="#161b22"/><rect x="709.0" y="161.0" width="11.0" height="11.0" rx="2" fill="#161b22"/><rect x="709.0" y="175.0" width="11.0" height="11.0" rx="2" fill="#161b22"/><rect x="709.0" y="189.0" width="11.0" height="11.0" rx="2" fill="#161b22"/><rect x="723.0" y="105.0" width="11.0" height="11.0" rx="2" fill="#161b22"/><rect x="723.0" y="119.0" width="11.0" height="11.0" rx="2" fill="#161b22"/><rect x="723.0" y="133.0" width="11.0" height="11.0" rx="2" fill="#161b22"/><rect x="723.0" y="147.0" width="11.0" height="11.0" rx="2" fill="#0e4429"/><rect x="723.0" y="161.0" width="11.0" height="11.0" rx="2" fill="#39d353"/><rect x="723.0" y="175.0" width="11.0" height="11.0" rx="2" fill="#0e4429"/><rect x="723.0" y="189.0" width="11.0" height="11.0" rx="2" fill="#161b22"/><rect x="737.0" y="105.0" width="11.0" height="11.0" rx="2" fill="#161b22"/><rect x="737.0" y="119.0" width="11.0" height="11.0" rx="2" fill="#161b22"/><rect x="737.0" y="133.0" width="11.0" height="11.0" rx="2" fill="#161b22"/><rect x="737.0" y="147.0" width="11.0" height="11.0" rx="2" fill="#161b22"/><rect x="737.0" y="161.0" width="11.0" height="11.0" rx="2" fill="#161b22"/><rect x="737.0" y="175.0" width="11.0" height="11.0" rx="2" fill="#161b22"/><rect x="737.0" y="189.0" width="11.0" height="11.0" rx="2" fill="#161b22"/><rect x="751.0" y="105.0" width="11.0" height="11.0" rx="2" fill="#161b22"/><text x="751.0" y="97.0" font-family="ui-monospace,SFMono-Regular,'SF Mono',Menlo,Consolas,'DejaVu Sans Mono','Liberation Mono',monospace" font-size="9.5" font-weight="400" fill="#8b949e" text-anchor="start" xml:space="preserve">Jul</text><rect x="751.0" y="119.0" width="11.0" height="11.0" rx="2" fill="#161b22"/><rect x="751.0" y="133.0" width="11.0" height="11.0" rx="2" fill="#161b22"/><rect x="751.0" y="147.0" width="11.0" height="11.0" rx="2" fill="#161b22"/><rect x="751.0" y="161.0" width="11.0" height="11.0" rx="2" fill="#161b22"/><rect x="751.0" y="175.0" width="11.0" height="11.0" rx="2" fill="#161b22"/><rect x="751.0" y="189.0" width="11.0" height="11.0" rx="2" fill="#161b22"/><rect x="765.0" y="105.0" width="11.0" height="11.0" rx="2" fill="#161b22"/><rect x="765.0" y="119.0" width="11.0" height="11.0" rx="2" fill="#161b22"/><rect x="765.0" y="133.0" width="11.0" height="11.0" rx="2" fill="#161b22"/><rect x="765.0" y="147.0" width="11.0" height="11.0" rx="2" fill="#161b22"/><rect x="765.0" y="161.0" width="11.0" height="11.0" rx="2" fill="#161b22"/><rect x="765.0" y="175.0" width="11.0" height="11.0" rx="2" fill="#161b22"/><rect x="765.0" y="189.0" width="11.0" height="11.0" rx="2" fill="#161b22"/><rect x="779.0" y="105.0" width="11.0" height="11.0" rx="2" fill="#161b22"/><rect x="779.0" y="119.0" width="11.0" height="11.0" rx="2" fill="#161b22"/><rect x="779.0" y="133.0" width="11.0" height="11.0" rx="2" fill="#161b22"/><rect x="779.0" y="147.0" width="11.0" height="11.0" rx="2" fill="#161b22"/><rect x="779.0" y="161.0" width="11.0" height="11.0" rx="2" fill="#161b22"/><rect x="779.0" y="175.0" width="11.0" height="11.0" rx="2" fill="#161b22"/><rect x="779.0" y="189.0" width="11.0" height="11.0" rx="2" fill="#161b22"/><rect x="793.0" y="105.0" width="11.0" height="11.0" rx="2" fill="#161b22"/><rect x="793.0" y="119.0" width="11.0" height="11.0" rx="2" fill="#161b22"/><rect x="793.0" y="133.0" width="11.0" height="11.0" rx="2" fill="#161b22"/><rect x="793.0" y="147.0" width="11.0" height="11.0" rx="2" fill="#161b22"/><rect x="793.0" y="161.0" width="11.0" height="11.0" rx="2" fill="#0e4429"/><rect x="793.0" y="175.0" width="11.0" height="11.0" rx="2" fill="#161b22"/><rect x="793.0" y="189.0" width="11.0" height="11.0" rx="2" fill="#161b22"/><rect x="807.0" y="105.0" width="11.0" height="11.0" rx="2" fill="#161b22"/><text x="807.0" y="97.0" font-family="ui-monospace,SFMono-Regular,'SF Mono',Menlo,Consolas,'DejaVu Sans Mono','Liberation Mono',monospace" font-size="9.5" font-weight="400" fill="#8b949e" text-anchor="start" xml:space="preserve">Aug</text><rect x="807.0" y="119.0" width="11.0" height="11.0" rx="2" fill="#161b22"/><rect x="807.0" y="133.0" width="11.0" height="11.0" rx="2" fill="#161b22"/><rect x="807.0" y="147.0" width="11.0" height="11.0" rx="2" fill="#161b22"/><rect x="807.0" y="161.0" width="11.0" height="11.0" rx="2" fill="#161b22"/><rect x="807.0" y="175.0" width="11.0" height="11.0" rx="2" fill="#161b22"/><rect x="807.0" y="189.0" width="11.0" height="11.0" rx="2" fill="#161b22"/><rect x="821.0" y="105.0" width="11.0" height="11.0" rx="2" fill="#161b22"/><rect x="821.0" y="119.0" width="11.0" height="11.0" rx="2" fill="#161b22"/><rect x="821.0" y="133.0" width="11.0" height="11.0" rx="2" fill="#161b22"/><rect x="821.0" y="147.0" width="11.0" height="11.0" rx="2" fill="#161b22"/><text x="192.6" y="233.0" font-family="ui-monospace,SFMono-Regular,'SF Mono',Menlo,Consolas,'DejaVu Sans Mono','Liberation Mono',monospace" font-size="13" xml:space="preserve"><tspan fill="#3fb950" font-weight="700">0d</tspan><tspan fill="#8b949e" font-weight="400"> current streak</tspan><tspan fill="#30363d" font-weight="400">  ·  </tspan><tspan fill="#e6edf3" font-weight="700">5d</tspan><tspan fill="#8b949e" font-weight="400"> longest</tspan><tspan fill="#30363d" font-weight="400">  ·  </tspan><tspan fill="#e6edf3" font-weight="700">16</tspan><tspan fill="#8b949e" font-weight="400"> best day</tspan><tspan fill="#30363d" font-weight="400">  ·  </tspan><tspan fill="#e6edf3" font-weight="700">193</tspan><tspan fill="#8b949e" font-weight="400"> this year</tspan></text><text x="752.0" y="255.0" font-family="ui-monospace,SFMono-Regular,'SF Mono',Menlo,Consolas,'DejaVu Sans Mono','Liberation Mono',monospace" font-size="10" font-weight="400" fill="#8b949e" text-anchor="start" xml:space="preserve">Less</text><rect x="782.0" y="246.0" width="11.0" height="11.0" rx="2" fill="#161b22"/><rect x="796.0" y="246.0" width="11.0" height="11.0" rx="2" fill="#0e4429"/><rect x="810.0" y="246.0" width="11.0" height="11.0" rx="2" fill="#006d32"/><rect x="824.0" y="246.0" width="11.0" height="11.0" rx="2" fill="#26a641"/><rect x="838.0" y="246.0" width="11.0" height="11.0" rx="2" fill="#39d353"/><text x="856.0" y="255.0" font-family="ui-monospace,SFMono-Regular,'SF Mono',Menlo,Consolas,'DejaVu Sans Mono','Liberation Mono',monospace" font-size="10" font-weight="400" fill="#8b949e" text-anchor="start" xml:space="preserve">More</text></svg>